<svg width="45" height="45" viewBox="0 0 45 45" fill="none" xmlns="http://www.w3.org/2000/svg">
<g clip-path="url(#clip0_8_632)">
<path d="M35.6251 5.625H9.37506C7.31256 5.625 5.62506 7.3125 5.62506 9.375V35.625C5.62506 37.6875 7.31256 39.375 9.37506 39.375H35.6251C37.6876 39.375 39.3751 37.6875 39.3751 35.625V9.375C39.3751 7.3125 37.6876 5.625 35.6251 5.625ZM20.0813 30.5438C19.3501 31.275 18.1688 31.275 17.4376 30.5438L10.7063 23.8125C9.97506 23.0812 9.97506 21.9 10.7063 21.1687C11.4376 20.4375 12.6188 20.4375 13.3501 21.1687L18.7501 26.5688L31.6501 13.6687C32.3813 12.9375 33.5626 12.9375 34.2938 13.6687C35.0251 14.4 35.0251 15.5812 34.2938 16.3125L20.0813 30.5438Z" fill="#3B755F"/>
</g>
<defs>
<clipPath id="clip0_8_632">
<rect width="45" height="45" fill="white"/>
</clipPath>
</defs>
</svg>
