<svg width="45" height="45" viewBox="0 0 45 45" fill="none" xmlns="http://www.w3.org/2000/svg">
<g clip-path="url(#clip0_7623_88)">
<path d="M33.75 35.625H11.25C10.2187 35.625 9.375 34.7813 9.375 33.75V11.25C9.375 10.2187 10.2187 9.375 11.25 9.375H33.75C34.7813 9.375 35.625 10.2187 35.625 11.25V33.75C35.625 34.7813 34.7813 35.625 33.75 35.625ZM35.625 5.625H9.375C7.3125 5.625 5.625 7.3125 5.625 9.375V35.625C5.625 37.6875 7.3125 39.375 9.375 39.375H35.625C37.6875 39.375 39.375 37.6875 39.375 35.625V9.375C39.375 7.3125 37.6875 5.625 35.625 5.625Z" fill="#212121"/>
</g>
<defs>
<clipPath id="clip0_7623_88">
<rect width="45" height="45" fill="white"/>
</clipPath>
</defs>
</svg>
