<svg width="70" height="70" viewBox="0 0 70 70" fill="none" xmlns="http://www.w3.org/2000/svg">
<g clip-path="url(#clip0_7623_92)">
<path d="M45.75 47.625H23.25C22.2187 47.625 21.375 46.7813 21.375 45.75V23.25C21.375 22.2187 22.2187 21.375 23.25 21.375H45.75C46.7813 21.375 47.625 22.2187 47.625 23.25V45.75C47.625 46.7813 46.7813 47.625 45.75 47.625ZM47.625 17.625H21.375C19.3125 17.625 17.625 19.3125 17.625 21.375V47.625C17.625 49.6875 19.3125 51.375 21.375 51.375H47.625C49.6875 51.375 51.375 49.6875 51.375 47.625V21.375C51.375 19.3125 49.6875 17.625 47.625 17.625Z" fill="#212121"/>
</g>
<circle opacity="0.5" cx="35" cy="35" r="35" fill="#AFC6BD"/>
<defs>
<clipPath id="clip0_7623_92">
<rect width="45" height="45" fill="white" transform="translate(12 12)"/>
</clipPath>
</defs>
</svg>
